<?xml version="1.0" encoding="UTF-8"?>
<svg fill="#D0021B" width="100pt" height="100pt" version="1.1" viewBox="0 0 100 100" xmlns="http://www.w3.org/2000/svg">
 <g>
  <path d="m95.312 57.812h-40.625c-0.86328 0-1.5625 0.69922-1.5625 1.5625v35.938c0 0.86328 0.69922 1.5625 1.5625 1.5625 25.629 0 42.188-14.719 42.188-37.5 0-0.86328-0.69922-1.5625-1.5625-1.5625zm-39.062 35.918v-32.793h37.473c-0.70312 19.832-14.883 32.25-37.473 32.793z"/>
  <path d="m46.875 48.438c0.39844 0 0.80078-0.15234 1.1055-0.45703l23.438-23.438-2.2109-2.2109-22.332 22.332-11.395-11.395-2.2109 2.2109 12.5 12.5c0.30469 0.30469 0.70703 0.45703 1.1055 0.45703z"/>
  <path d="m46.875 90.625c0.79688 0 0.91406-0.03125 1.1211-0.070312 0.089844-0.015626 0.21094-0.035157 0.55469-0.0625 0.81641-0.058594 1.4492-0.73828 1.4492-1.5586v-34.246h38.797c0.79688 0 1.4648-0.59766 1.5547-1.3906 0.17578-1.6172 0.27344-4.7656 0.27344-6.4219 0-24.125-19.625-43.75-43.75-43.75s-43.75 19.625-43.75 43.75 19.625 43.75 43.75 43.75zm0-84.375c22.402 0 40.625 18.227 40.625 40.625 0 1.1484-0.050781 3.1328-0.14453 4.6875h-38.918c-0.86328 0-1.5625 0.69922-1.5625 1.5625v34.375c-22.402 0-40.625-18.227-40.625-40.625s18.223-40.625 40.625-40.625z"/>
  <path d="m89.52 91.73l2.2109-2.2109 3.125 3.125-2.2109 2.2109z"/>
  <path d="m92.316 81.25h4.6875v3.125h-4.6875z"/>
  <path d="m79.688 92.188h3.125v4.6875h-3.125z"/>
 </g>
</svg>
